<?xml version="1.0" encoding="UTF-8"?>
<svg width="3871px" height="2367px" viewBox="0 0 3871 2367" version="1.1" xmlns="http://www.w3.org/2000/svg" xmlns:xlink="http://www.w3.org/1999/xlink">
    <!-- Generator: Sketch 57.1 (83088) - https://sketch.com -->
    <title>composition-1</title>
    <desc>Created with Sketch.</desc>
    <g id="composition-1" stroke="none" stroke-width="1" fill="none" fill-rule="evenodd">
        <rect fill="#EDFFFB" x="0" y="0" width="3871" height="2367"></rect>
        <g id="illustrations" transform="translate(424.000000, 627.000000)">
            <g id="Character/sprinting" transform="translate(0.000000, 0.500000)">
                <path d="M618.796875,607.26291 C627.832524,572.117479 636.348347,536.206551 649.755026,502.431409 C658.146505,481.29473 667.037087,460.349857 675.943211,439.427448 C677.178014,436.52271 677.699567,433.723378 680.103547,432.277057 C683.312308,430.345173 689.952612,430.386645 693.574125,429.723099 C745.014463,420.28486 796.990169,413.080902 849.136849,409.028784 C908.645717,404.404703 966.660732,406.519754 1025.54443,416.220646 C1075.90194,424.516689 1125.76207,435.950748 1175.0782,449.043669 C1182.32814,450.966913 1189.56771,452.933357 1196.79174,454.953369 C1200.15766,455.895119 1205.74622,456.375498 1208.68039,458.340214 C1214.95284,462.539211 1217.0805,479.748186 1219.43095,487.038543 C1222.58099,496.810283 1224.41506,510.234977 1230.48718,518.5483 C1239.52801,530.922381 1253.28872,541.656607 1264.49521,551.943285 C1303.60479,587.845573 1346.47749,620.596021 1396.98698,638.345855 C1475.12842,665.805221 1557.52863,683.015925 1638.47644,700.031366 C1640.3606,700.427074 1642.24475,700.821054 1644.12891,701.211578 C1623.17352,724.425292 1602.21814,747.639006 1581.26276,770.85272 C1569.44837,783.938729 1557.63571,797.024739 1545.82305,810.110749 C1539.7492,816.839512 1540.41409,818.040459 1531.82401,816.165599 C1488.78033,806.770559 1445.81264,796.528808 1403.54957,784.044136 C1382.83078,777.925351 1361.75624,771.57156 1342.47949,761.659854 C1315.94764,748.017434 1291.04434,731.154055 1266.80593,713.832761 C1245.13902,698.348311 1223.98158,682.150206 1203.20581,665.492457 C1199.10937,662.20929 1184.32973,646.379245 1179.53731,647.41085 C1175.40288,648.300761 1168.2462,657.711352 1165.21878,660.451932 C1157.21242,667.702546 1149.17325,674.9186 1141.08399,682.075902 C1128.21095,693.463306 1115.06333,707.411578 1100.02636,715.98237 C1084.18116,725.016262 1066.02006,731.169607 1049.29582,738.363197 C1039.96658,742.373844 1030.62871,746.370667 1021.28911,750.357122 C1018.84886,751.397367 1015.44495,753.661024 1012.81473,753.718047 C1005.02943,753.882206 993.724505,747.552607 986.50393,745.086776 C967.954253,738.751993 949.54101,732.016318 931.317735,724.793352 C892.408489,709.37111 849.646313,692.614866 817.622604,664.861743 C812.035768,660.021665 806.57673,654.602712 802.87923,648.134875 C801.597798,645.891954 799.691193,642.76949 799.559941,640.122221 C799.350974,635.90076 801.723868,635.071329 805.252124,632.4327 C823.466763,618.814471 843.106174,606.944961 862.420911,594.976956 C866.959459,592.165529 871.506643,589.366198 876.069369,586.594514 L650.38538,604.724504 C639.855878,605.571215 629.326377,606.416199 618.796875,607.26291" id="Accent" fill="#FF5678"></path>
                <path d="M954.855694,177.396863 C978.699591,178.484768 1003.14356,179.593429 1026.77994,182.950543 C1050.34023,186.29555 1072.32684,194.851781 1093.62171,205.211964 C1132.01613,223.891425 1171.25964,246.597347 1195.95437,282.527636 C1207.50105,299.327044 1216.91894,316.91687 1232.85638,330.141236 C1236.5848,333.233725 1240.6487,336.950592 1245.59629,337.896672 C1249.5305,338.649039 1253.00125,337.056096 1256.85418,336.865842 C1264.20726,336.500901 1266.9932,340.378619 1266.9932,347.686093 C1272.5132,345.482608 1278.52259,343.488403 1284.54236,344.297846 C1289.57469,344.975842 1293.57635,348.011254 1298.40807,349.287684 C1307.12732,351.591484 1315.66152,348.146161 1323.95362,345.579465 C1344.89745,339.097 1367.90262,334.188453 1389.90825,336.500901 C1404.4017,338.024661 1421.9647,344.311683 1414.45944,362.987685 C1408.23561,378.47953 1384.96066,386.321445 1370.25969,390.174948 C1357.75496,393.454231 1340.94249,390.527782 1341.9991,407.787258 C1342.73579,419.833781 1344.5585,432.757201 1357.35894,436.666051 C1364.37653,438.809 1389.24246,442.001804 1374.72134,452.872213 C1363.99954,460.899192 1360.25556,475.028129 1352.10007,485.639101 C1341.70512,499.164414 1327.61287,510.098817 1311.13934,515.035038 C1292.7065,520.559315 1273.20147,519.499083 1254.26712,521.642032 C1267.60365,540.051679 1286.85793,552.713932 1304.38461,566.71315 C1322.81227,581.433603 1340.59143,597.520424 1361.91917,608.013784 C1381.0351,617.419238 1401.68839,623.950131 1421.43207,631.925223 C1442.16837,640.301578 1463.05167,648.581076 1484.45549,655.10678 C1527.63149,668.268882 1573.04695,677.463328 1617.4352,685.537006 C1639.34053,689.521958 1660.81871,688.93736 1682.94539,689.291923 C1705.64275,689.656865 1728.32627,693.638357 1750.60686,697.727084 C1761.40821,699.710912 1772.31331,700.961398 1783.11293,702.936578 C1788.29571,703.884388 1808.81066,705.97372 1809.54563,713.566575 C1810.74405,725.93307 1797.37293,732.865225 1787.5815,736.314007 C1783.4,737.787609 1776.66602,737.573141 1773.04482,739.598479 C1769.1279,741.789857 1770.65662,745.015523 1770.20873,749.258182 C1769.55504,755.424134 1766.25723,759.860505 1761.20069,763.281614 C1757.04167,766.09564 1752.02836,765.984947 1754.89558,771.313782 C1756.21678,773.771515 1759.52498,775.319489 1761.05024,777.912129 C1762.79339,780.867981 1763.5958,784.110943 1763.24129,787.513026 C1762.62219,793.469699 1758.68798,798.015034 1753.20084,800.121662 C1744.42972,803.489154 1734.13679,801.105793 1725.15296,800.012699 C1710.11996,798.184533 1694.86734,798.001197 1680.03494,794.711537 C1664.57134,791.28178 1649.52278,785.996185 1634.04188,782.483408 C1626.10256,780.682916 1618.14768,779.172993 1610.38994,776.675479 C1605.34205,775.051404 1598.04604,770.832959 1592.66957,772.154358 C1587.63379,773.391008 1583.69785,779.473939 1580.40522,783.004012 C1575.86056,787.874508 1571.46116,792.878182 1566.84387,797.679496 C1563.7847,800.860193 1560.64598,803.975166 1557.30493,806.861834 C1556.21892,807.799266 1549.51087,811.90183 1549.41749,813.003572 C1549.15636,816.115086 1556.47831,816.061469 1558.04681,817.298118 C1567.16034,824.503547 1553.46583,829.06272 1547.55674,828.701237 C1533.9366,827.871039 1520.24728,826.198535 1506.75684,824.197412 C1474.6364,819.43069 1442.60762,814.28519 1411.89658,803.523745 C1381.51931,792.878182 1351.87699,781.554624 1323.78069,765.68746 C1296.81191,750.45851 1270.72681,733.240544 1245.25216,715.64207 C1232.89096,707.101406 1220.44503,698.252876 1210.00684,687.37382 C1199.80038,676.733445 1191.47888,664.517424 1183.01385,652.495115 C1162.74273,672.079146 1143.23424,692.673252 1121.45861,710.626289 C1100.74479,727.704159 1075.84255,736.827692 1051.74963,747.919487 C1052.52955,752.959482 1076.07947,755.977599 1080.38029,757.286891 C1100.02366,763.266048 1118.87328,772.860027 1137.97883,780.383698 C1169.76205,792.900667 1199.9197,809.189849 1210.50488,843.952671 C1220.91195,878.130896 1208.84128,912.535696 1194.11955,943.412153 C1176.74332,979.861316 1156.10559,1013.62098 1131.15493,1045.39682 C1120.54207,1058.91522 1109.10952,1071.35954 1097.46254,1083.94742 C1087.52585,1094.68811 1079.00721,1107.4109 1083.17142,1122.67617 C1091.1678,1120.17693 1092.63427,1126.41725 1087.4048,1131.70112 C1082.75811,1136.39693 1074.72541,1137.30842 1068.5206,1138.08673 C1049.70903,1140.44587 1030.27836,1139.61222 1011.44604,1137.85842 C977.157036,1134.66389 942.791941,1126.00734 911.748874,1111.1122 C896.304296,1103.70095 890.715126,1115.65062 880.093628,1124.9056 C871.735812,1132.1854 860.228901,1136.90542 853.8771,1146.32645 C848.652817,1154.07669 852.063041,1166.32212 862.916268,1163.41815 C871.360549,1161.15759 878.144681,1151.73484 887.088737,1151.37163 C902.963916,1150.72823 873.012052,1173.38226 869.179874,1176.14786 C876.766411,1182.93473 885.368061,1173.62786 893.018583,1172.0747 C900.356098,1170.5838 902.405345,1174.38369 898.495347,1180.50121 C895.446552,1185.27139 885.869564,1188.64926 892.238659,1194.452 C897.516551,1199.2585 909.217146,1201.78888 915.696917,1203.89551 C935.910967,1210.46964 956.021257,1215.14642 977.065382,1218.14897 C983.861619,1219.11754 994.75635,1218.49835 1000.26597,1223.31696 C1007.53258,1229.67316 1004.02898,1240.2063 1000.35071,1247.48783 C986.417557,1275.06944 957.447948,1288.62762 927.694956,1290.61317 C909.372785,1291.83426 890.877682,1290.65122 872.494985,1291.64054 C852.351838,1292.72499 832.163728,1294.33523 811.975618,1293.66934 C779.517966,1292.60046 758.869856,1269.13525 742.688586,1243.33165 C732.409494,1226.93697 722.934536,1210.06665 714.035443,1192.88846 C710.559505,1186.17769 703.279058,1179.22478 702.040863,1171.68381 C700.923721,1164.89521 705.253944,1159.4505 709.461385,1154.64745 C720.532508,1142.00768 733.853478,1132.36009 746.868359,1121.91516 C754.299257,1115.9533 757.156098,1111.01535 760.464291,1102.33631 C763.25023,1095.03057 768.605941,1091.90695 773.321803,1086.07827 C778.508041,1079.66498 776.87902,1078.53038 772.834135,1073.28975 C768.600753,1067.8018 770.264361,1059.71601 772.042105,1053.50682 C774.591126,1044.59775 780.060973,1042.63641 788.228563,1039.76531 C795.676754,1037.15018 801.99051,1032.55815 808.594793,1028.2982 C841.215001,1007.25786 871.950248,983.450194 904.973389,962.996184 C937.553823,942.817177 971.604182,924.992129 1002.69913,902.474731 C977.449291,899.079566 955.187724,885.44183 931.368037,877.366422 C919.145186,873.222349 907.0382,868.796354 895.211364,863.609345 C890.694374,861.628976 885.432046,859.868264 881.402725,856.955652 C877.354381,854.029203 874.24333,850.179158 869.999573,847.410101 C859.929728,840.837698 847.957629,837.096617 837.128612,831.973602 C825.433205,826.440677 813.889978,820.394066 803.022916,813.352947 C792.876981,806.778814 783.135708,799.26552 774.700073,790.58303 C767.979927,783.666441 761.444817,774.651871 751.930085,771.474633 C752.927904,784.728403 769.342633,795.702586 778.338568,803.679408 C792.935778,816.621853 808.110582,827.62025 824.428469,838.309053 C806.12705,853.992882 783.81879,864.20605 762.387298,874.799726 C738.28919,886.709611 714.865518,899.913223 690.864252,912.008174 C670.532609,922.254204 649.14262,930.149736 628.477217,939.669342 C606.181063,949.941316 583.232955,958.554623 559.97011,966.368864 C538.917339,973.441116 519.097575,980.982083 499.232848,990.908141 C479.921505,1000.5592 459.259561,1007.93931 438.601075,1014.13294 C415.39011,1021.09104 393.246136,1027.71014 370.922313,1037.2505 C350.793,1045.8517 330.58068,1051.35003 309.277157,1056.02682 C302.240545,1057.57133 293.204835,1060.40611 288.276266,1053.59157 C284.54093,1048.42704 283.9789,1040.46406 282.90672,1034.38978 C278.799579,1011.14768 278.474467,987.533731 274.780634,964.255318 C260.757559,968.4876 247.476362,973.695364 232.682009,974.366441 C223.381713,974.788458 217.730288,975.748375 215.412996,985.904467 C220.792918,986.51155 240.016066,986.777905 240.534862,994.400163 C241.005238,1001.27524 229.373815,1001.34616 225.249382,1001.53468 C217.868633,1001.87022 211.179614,1000.65951 207.240218,1007.8857 C213.043824,1010.03037 225.911712,1006.12152 228.481485,1013.92885 C231.793138,1024.00019 216.75495,1023.97598 211.3439,1024.78715 C201.903529,1026.20195 202.873679,1033.61665 203.520445,1041.54332 C204.371272,1051.97268 205.016309,1062.41589 206.423978,1072.79163 C209.432999,1094.96312 214.58638,1116.79906 217.026453,1139.05183 C219.136227,1158.29341 220.319083,1176.77397 206.569241,1192.10669 C201.040597,1198.27264 193.355488,1205.36911 184.667373,1206.10245 C175.849558,1206.84617 176.010385,1200.66984 170.521515,1196.12277 C167.157983,1193.33815 162.703249,1192.76912 158.741371,1191.26611 C153.921749,1189.43968 149.245662,1186.76402 144.915438,1183.9915 C136.934615,1178.88232 129.958529,1172.53996 124.31575,1164.9177 C102.247867,1135.09282 94.3586977,1090.53539 92.1728342,1054.37334 C90.782459,1031.37858 92.1693755,1008.35268 94.2791489,985.447858 C95.4153137,973.110766 96.5583958,960.768485 98.050801,948.469444 C98.5125301,944.65918 99.2855372,940.841997 99.5726048,937.019626 C99.7368904,934.831708 98.6820037,930.409173 99.799146,928.311192 C98.372455,930.986852 95.845915,929.008213 93.3366682,926.901585 C88.1573475,922.549962 89.7517828,914.194363 92.5221573,908.474643 C100.869597,891.232462 125.885975,890.561385 142.160628,889.220961 C185.907297,885.616517 227.468102,873.884778 269.348832,861.352243 C263.438008,852.500254 272.734846,846.656004 279.940932,843.613674 C291.053558,838.923053 302.529341,834.798006 313.745727,830.318394 C339.075112,820.200353 363.877054,810.767225 390.401401,804.310704 C414.426877,798.464725 437.674158,788.758323 461.377981,781.642832 C485.868645,774.290389 509.916602,765.888091 534.006063,757.324942 C581.716339,740.364683 629.469848,723.036024 675.770726,702.462673 C687.47478,697.261827 698.65485,691.232512 709.949054,685.217034 C719.124839,680.330971 729.89333,676.747282 737.671822,669.688867 C745.099262,662.948695 749.547079,653.576102 757.621285,647.45512 C764.891357,641.942949 774.838419,641.866848 780.861649,635.019442 C789.006758,625.762731 798.732467,621.694759 809.789754,616.265609 C813.341783,614.522192 836.72741,605.711713 836.251846,600.711498 C819.539674,600.711498 802.384796,605.68404 785.857662,607.999947 C768.377671,610.449032 750.911514,613.17312 733.303554,614.527381 C704.771463,616.720488 676.253207,616.127242 647.842169,613.034754 C643.596683,612.572956 626.564586,609.075746 623.628197,613.629729 C621.390454,617.100996 626.953684,621.232962 627.009022,624.961936 C627.09203,630.434326 622.682258,633.369423 617.687975,631.468614 C607.965724,627.770773 609.390686,612.100781 610.29858,604.148173 C612.036549,588.93652 615.903314,573.864962 619.28241,558.961174 C599.223999,569.172612 580.177242,582.282826 562.90477,596.691955 C549.525002,607.851203 537.443956,622.983296 521.743438,630.939363 C506.668935,638.580646 497.705856,632.06186 498.323225,615.239968 C498.606833,607.532961 500.168412,600.218568 502.836756,593.040812 C504.097432,589.649106 509.276753,580.049939 506.850513,576.436847 C493.073002,587.424867 479.387144,598.44229 464.924821,608.529199 C454.701067,615.660256 439.879044,626.781453 426.530405,623.951861 C414.741614,621.452618 415.895072,608.477311 419.632138,599.736015 C422.872888,592.153538 428.697246,585.416825 434.469724,579.626192 C439.242654,574.840445 446.028515,570.551087 448.418438,563.916419 C432.584762,571.03364 416.28244,576.419551 399.69478,581.421496 C387.899071,584.977512 379.653662,599.748122 365.936677,597.565393 C352.205857,595.380934 357.673974,578.408568 363.154197,571.028451 C366.989834,565.865656 372.295395,561.318591 377.441859,557.503138 C382.460352,553.781082 390.095311,550.53812 392.564783,544.344495 C376.523589,547.355694 360.395928,552.591131 343.889545,551.626026 C334.087746,551.051806 317.724897,546.771096 319.660009,533.591698 C321.619331,520.246261 339.38639,519.22408 349.376685,516.735214 C362.998558,513.340049 376.03419,506.966548 389.17877,502.106429 C415.694471,492.299465 442.72687,484.433595 469.857149,476.616808 L478.42737,474.147773 C509.050211,465.319998 539.845985,457.801515 570.849277,450.468097 C586.172803,446.842898 601.44272,442.889079 616.887298,439.79659 C631.828644,436.804417 647.010365,435.071378 661.837576,431.494608 C649.341492,412.628352 664.473063,397.1244 680.81343,388.146151 C670.449601,386.049901 659.91111,384.789037 649.637206,382.248284 C640.862624,380.079391 632.406238,376.746491 623.567671,374.826658 C608.377303,371.528349 593.205957,369.793581 580.239498,360.384667 C555.73327,342.604588 553.649436,314.310393 574.297546,292.899926 C595.135881,271.290557 625.720677,261.172516 655.155474,260.16763 C688.100795,259.043403 725.585588,265.430741 756.414218,277.098486 C771.557895,282.830313 787.325856,290.117032 800.30788,299.87878 C809.1378,306.518637 823.102078,319.241425 834.954854,319.241425 C820.758846,302.070157 803.337652,284.312563 800.774797,261.056634 C798.346828,239.039084 808.331936,215.636141 825.08734,201.394781 C858.565293,172.946654 913.811956,175.521998 954.855694,177.396863 Z M763.991477,1121.07567 C755.252843,1134.6686 743.168234,1145.7056 731.758356,1156.98709 C727.822424,1160.87822 719.922879,1165.82882 719.542262,1171.92388 C719.234307,1176.9005 725.33803,1182.4979 728.004083,1186.4081 C742.099045,1207.08967 753.706151,1229.93183 770.923907,1248.30024 C790.385577,1269.05811 812.596344,1273.09316 840.154788,1273.15212 C870.752983,1273.21974 901.759476,1277.04844 932.304039,1275.43408 C958.179115,1274.06767 983.683954,1262.54342 996.550559,1239.1169 C988.168322,1234.79574 976.24115,1236.85575 967.1565,1236.95285 C954.769127,1237.0829 942.677598,1236.85922 930.440743,1234.70557 C919.3492,1232.75307 908.387413,1229.82259 897.955031,1225.54478 C892.557181,1223.33044 887.218154,1220.79878 882.247634,1217.72264 C878.607546,1215.47189 875.87229,1212.02468 872.296214,1209.81554 C859.109545,1201.67088 843.88138,1227.56664 829.786419,1227.06898 C821.15332,1226.76552 824.277844,1218.27233 827.87122,1213.52113 C834.35556,1204.94123 845.666823,1199.64555 854.208228,1193.39097 C846.25678,1186.06996 837.272475,1193.74817 829.701645,1197.57341 C820.236377,1202.35582 810.402603,1208.22719 799.826624,1210.02362 C800.619,1196.39081 819.158537,1189.08368 829.38677,1183.5383 C833.938611,1181.0708 839.642684,1178.7819 840.763776,1173.35444 C841.606325,1169.27258 840.163439,1163.46883 839.736109,1159.34708 C839.194594,1154.10689 838.793215,1152.43357 833.215437,1150.95619 C826.450825,1149.16322 819.63777,1149.68169 812.861046,1147.44481 C794.314589,1141.31855 779.887452,1132.22538 763.991477,1121.07567 Z M161.237261,906.242816 C156.708187,907.498916 152.132368,908.585692 147.532311,909.556707 C138.427418,911.478004 129.310406,913.473596 120.17435,915.216931 C115.591606,916.09119 110.503323,915.536571 109.152911,919.911323 C108.45866,922.153988 110.205539,926.18491 110.505054,928.513964 C111.043487,932.714209 111.078113,936.973199 111.128321,941.204544 C111.606159,980.183373 103.458674,1018.93759 107.045922,1057.91296 C110.075692,1090.85318 117.167086,1132.50662 141.358505,1157.03944 C151.799959,1167.62731 164.646186,1179.12744 177.793658,1186.36341 C188.100071,1192.034 202.49754,1177.80051 204.602798,1167.94695 C206.110758,1160.88549 203.595183,1153.43355 201.957375,1146.62608 C199.857312,1137.90422 197.729547,1129.18582 195.650259,1120.45878 C191.209481,1101.83153 187.172096,1083.02977 185.89613,1063.88073 C185.477156,1057.58987 185.567183,1051.5288 185.922099,1045.26558 C186.114273,1041.86357 187.715723,1033.66696 185.336921,1030.75391 C182.260405,1026.98561 175.231338,1029.44771 171.069299,1029.76907 C166.505599,1030.12327 162.050971,1029.85028 157.59288,1028.68575 C146.980027,1025.91093 145.120614,1017.47416 156.708187,1013.56591 C164.79854,1010.83773 179.587282,1014.79091 186.384355,1009.54017 C194.37083,1003.37025 178.229945,1002.52363 174.46091,1002.36295 C169.441879,1002.15043 152.795455,1003.46355 153.645522,994.105864 C154.273983,987.170535 168.603931,986.709217 173.617769,986.413766 C184.329305,985.784852 197.881901,989.796769 202.511391,976.879848 C204.367341,971.705132 193.195279,969.077171 190.392309,966.511411 C183.579654,960.274107 181.34628,949.580846 180.761102,940.819248 C180.18458,932.204513 188.662743,902.33975 175.745533,901.550152 C171.779131,901.308262 165.18635,905.1474 161.237261,906.242816 Z M796.548367,1078.59583 C788.945961,1087.64998 782.375237,1097.56726 775.2947,1107.03036 C791.901496,1116.19588 808.887206,1123.56728 826.058929,1131.44855 C833.868015,1135.03332 839.34161,1137.87503 846.899235,1132.44045 C852.321159,1128.54245 856.38588,1123.00172 861.676906,1118.9471 C869.281034,1113.12446 877.227908,1107.78559 885.023215,1102.23442 C862.021374,1093.8398 838.668175,1086.47362 815.673223,1078.06159 C807.073583,1074.91535 802.7574,1071.19833 796.548367,1078.59583 Z M607.150815,1049.83738 C612.069172,1054.8252 602.599762,1068.64678 600.735264,1073.37715 C615.987066,1072.16697 631.111187,1069.76238 646.088386,1066.66601 C651.188645,1065.61346 649.308406,1071.82371 647.400181,1073.87103 C645.0407,1076.40697 640.319987,1077.17406 637.164683,1078.07775 C625.556172,1081.4053 613.648573,1083.00777 601.735726,1084.78363 C607.187546,1091.49302 620.305495,1101.9888 616.081515,1112.07828 C608.46261,1105.5125 602.984555,1096.77331 594.557584,1091.09546 C592.122893,1094.7295 587.071608,1107.54581 581.535833,1106.76121 C572.844755,1105.52826 581.649522,1090.5508 583.466795,1086.94479 C577.614441,1086.94479 555.623511,1092.08147 552.55566,1084.87645 C549.416098,1077.50506 570.637441,1077.74324 574.560583,1076.00241 L573.829238,1075.10948 L573.094753,1074.22352 C570.161197,1070.68709 567.344211,1067.19992 566.946925,1062.3437 C573.509398,1064.60468 577.890793,1074.88856 585.102166,1075.03742 C591.940991,1075.17928 594.9931,1064.90241 597.429541,1060.03544 C598.814796,1057.26832 603.519767,1046.15256 607.150815,1049.83738 Z M1347.13823,952.899801 C1361.84268,965.304583 1351.85401,990.323787 1340.72729,1001.57212 C1328.26147,1014.17279 1300.50855,1025.74761 1284.70864,1012.90293 C1276.05906,1005.87315 1279.1802,995.147201 1281.3115,985.79593 C1283.67791,975.403337 1285.15159,966.643179 1293.75687,959.512019 C1307.14438,948.41662 1332.22082,940.316309 1347.13823,952.899801 Z M1317.29099,960.108262 C1302.94582,963.15941 1288.40892,977.494287 1284.99925,992.269113 C1280.52729,1011.64293 1300.63643,1013.05896 1313.88304,1010.14674 C1330.54796,1006.48465 1348.25272,994.262245 1349.10254,975.091485 C1349.83492,958.546173 1328.43721,957.737521 1317.29099,960.108262 Z M273.421653,876.346506 C251.940163,884.342936 231.74791,895.284595 209.209698,900.029978 C202.331457,901.477397 199.506589,903.062087 197.806115,909.470352 C195.423717,918.439837 193.166252,927.530954 194.866726,936.901824 C198.397811,956.359455 225.47004,953.97547 240.503613,953.212664 C248.221679,952.819966 263.066117,954.230897 269.762165,949.414273 C274.653628,945.897373 272.600914,939.29971 271.839172,934.165106 C268.988276,914.966377 272.097713,895.533072 273.421653,876.346506 Z M1444.63187,690.927872 C1436.72298,692.419478 1423.0496,698.866899 1434.3885,706.950051 C1441.95353,712.339977 1453.21294,712.994617 1462.09986,714.32647 C1479.46072,716.927665 1497.99313,719.174625 1513.05753,728.969912 C1540.97279,747.119237 1537.55315,781.368881 1529.20362,809.398579 C1535.21694,812.940927 1552.88192,789.780222 1556.20998,786.013872 C1569.70711,770.734891 1583.25953,755.502794 1596.86725,740.321054 C1602.69222,733.828486 1554.94684,711.40056 1550.6563,709.381074 C1527.97504,698.708883 1506.80402,691.681489 1481.36321,689.849539 C1469.29856,688.981317 1456.5721,688.677439 1444.63187,690.927872 Z M1346.15873,634.118334 C1343.99025,639.583177 1347.78814,642.060457 1351.2755,645.835853 C1370.77959,666.938422 1384.5127,696.80715 1395.37254,723.003917 C1400.78763,736.067823 1404.58028,749.240335 1407.93331,762.926577 C1411.22354,776.355955 1421.6734,779.945167 1434.19405,783.756766 C1463.03499,792.538441 1493.39542,795.477733 1522.33754,804.150801 C1530.09207,806.474652 1531.61332,789.423308 1532.10005,785.09798 C1533.48523,772.794325 1532.19775,759.952806 1525.73418,749.107593 C1513.5136,728.60495 1489.0166,724.246868 1467.16434,720.754195 C1454.66811,718.75789 1438.20303,716.696075 1428.31317,708.150578 C1423.34992,703.861452 1422.64686,698.941369 1426.51802,693.612717 C1433.57648,683.893226 1446.00467,682.645104 1457.10874,681.852099 C1462.51685,681.46594 1496.00353,684.851729 1497.09736,680.888425 C1480.42468,675.454612 1463.31063,671.870572 1446.88218,665.655822 C1434.06626,660.807282 1421.14829,656.228321 1408.21585,651.689846 L1395.28182,647.15638 C1382.12964,642.543156 1370.08875,636.93178 1357.46866,631.377293 C1352.72871,629.293067 1348.38129,628.519025 1346.15873,634.118334 Z M1628.98132,723.032649 C1624.8061,728.650019 1620.66375,733.3651 1617.5332,739.675865 C1613.88032,747.038131 1607.82159,751.733902 1602.75564,758.055199 C1629.06261,762.698307 1654.15714,768.59479 1679.50246,777.099841 C1692.51585,781.467346 1705.95817,783.624768 1719.26905,786.752941 C1730.43524,789.375551 1742.33478,793.444633 1753.89705,791.037941 C1740.728,772.886813 1705.60534,777.905582 1696.35898,755.922353 C1690.06676,740.96786 1705.52924,729.039724 1718.17595,726.443446 C1740.26101,721.91093 1763.8041,721.5616 1786.23611,719.946606 C1786.47203,711.362561 1705.04322,706.917817 1696.99201,706.222667 C1682.69527,704.98509 1667.77588,702.304551 1653.50681,701.809521 C1640.26339,701.349598 1635.93424,713.683238 1628.98132,723.032649 Z M1318.25494,660.249208 C1310.41137,667.832187 1302.7338,675.581102 1294.89722,683.174452 C1289.74621,688.166392 1282.76755,693.483293 1278.70686,699.4311 C1273.52266,707.024449 1282.60331,710.675065 1288.65416,714.26864 C1303.92894,723.341595 1319.71393,731.8113 1335.25604,740.441756 C1349.21861,748.195857 1363.74031,758.065656 1379.15313,762.60127 C1387.39508,765.026371 1395.13556,768.792797 1403.08572,771.976714 C1399.25042,737.548229 1379.48686,706.277732 1361.26091,677.575804 C1357.07616,670.984991 1352.75337,664.485789 1348.56862,657.896704 C1346.45965,654.579691 1342.54747,646.751264 1338.12684,646.075416 C1331.59373,645.074608 1322.21604,656.418827 1318.25494,660.249208 Z M1717.88064,747.874758 C1727.43502,753.349432 1737.01202,756.131752 1747.78833,751.994925 C1750.43759,750.913652 1753.06421,749.769068 1755.65603,748.564507 C1748.47588,738.769739 1727.23832,744.739232 1717.88064,747.874758 Z M926.586194,628.060336 C909.649994,635.697365 891.535337,643.304881 876.807228,654.827264 C871.370062,659.080668 859.220368,668.016287 862.063545,676.120323 C864.496599,683.059447 877.945883,688.969074 884.331352,691.083623 C917.926876,702.206707 956.163546,694.114824 987.097593,714.527689 C995.469651,720.051905 998.198617,727.272274 1004.41796,734.536046 C1010.04202,741.105384 1017.15948,740.289425 1024.71821,737.563775 C1034.64251,733.983972 1043.78809,728.501421 1053.75219,724.987589 C1058.84672,723.190743 1067.50431,721.99979 1068.03384,715.123165 C1070.52573,682.708758 1063.61246,641.412551 1035.04571,621.579538 C1002.9782,599.316009 958.740229,613.562306 926.586194,628.060336 Z M908.423535,703.596506 C907.604482,707.706288 939.390645,715.147354 942.842739,716.098661 C962.036173,721.387311 979.967404,733.959616 999.848844,735.987131 C1003.30611,728.275729 975.766954,715.997713 971.411315,714.415054 C951.536773,707.194704 929.29646,705.885802 908.423535,703.596506 Z M1532.60134,689.200673 C1556.69913,699.078365 1580.05637,711.172891 1600.25556,727.990007 C1607.22287,733.789496 1624.14888,706.266439 1627.93923,702.0464 C1595.84321,700.712098 1564.21283,694.586913 1532.60134,689.200673 Z M1082.20772,495.589069 C1059.86798,510.350994 1040.4119,529.652661 1015.88526,540.969217 C1023.56007,542.177513 1031.93856,537.207964 1039.26671,535.464565 C1046.40515,533.767772 1053.62292,532.647509 1060.57165,530.244726 C1064.84022,528.768879 1082.46642,519.238875 1085.77436,525.698081 C1090.94321,535.787353 1054.54045,542.767852 1049.36469,544.488811 C1031.88509,550.298989 1014.52104,556.385349 997.220804,562.708189 C980.463841,568.832524 963.71895,575.422916 946.403191,579.821114 C928.816657,584.288357 910.169447,585.439691 893.262437,592.377036 C878.31121,598.511728 865.46064,608.664867 851.040614,615.830063 C836.577471,623.015972 820.139573,627.460776 807.673606,638.154196 C821.229569,652.624404 837.260443,664.741888 854.798686,673.966365 C857.608185,651.899427 883.46627,639.334874 901.156284,630.852635 C939.723516,612.360527 997.645075,584.476506 1036.95392,615.812801 C1065.68359,638.71519 1069.57619,682.172421 1069.57619,716.19286 C1077.35793,713.714127 1084.4636,709.77163 1091.69172,706.050078 C1096.69846,703.471229 1096.75537,696.290498 1097.38488,691.495289 C1098.41624,683.641364 1100.53932,676.036004 1102.97801,668.501415 C1108.37108,651.835559 1115.12319,635.575347 1121.55796,619.29442 C1131.97156,592.957018 1144.80661,566.982105 1151.20688,539.27415 C1155.38405,521.191136 1160.35285,490.110309 1138.55638,481.134396 C1119.69876,473.37023 1097.51941,485.472178 1082.20772,495.589069 Z M984.648111,421.98697 C981.005285,424.42871 982.365065,431.753931 982.61277,435.429521 C983.516981,448.794199 982.95055,462.214254 983.397459,475.60316 C983.941371,491.916616 984.060894,521.83183 1000.87887,530.979271 C1012.38244,537.235042 1026.68872,527.860904 1035.86767,521.477077 C1051.40035,510.680465 1065.64946,498.141237 1081.39694,487.60074 C1100.06491,475.104775 1135.43826,457.818775 1153.30248,481.325935 C1162.96992,494.048596 1161.6136,513.006262 1159.20237,527.808989 C1156.01858,547.339451 1148.58223,565.862761 1141.19264,584.114381 C1125.93192,621.803017 1110.0043,660.104251 1101.51823,699.997548 C1120.86695,688.494891 1135.91461,671.916668 1152.80188,657.35275 C1165.31879,646.557869 1183.90881,634.160542 1186.79813,616.568244 C1187.45117,612.595008 1191.29666,609.763904 1193.94174,607.105851 C1197.38363,603.646574 1199.80871,600.142305 1201.98956,595.729521 C1206.80336,585.981595 1209.93172,575.453211 1211.90297,564.786388 C1216.03947,542.407516 1214.06822,520.132476 1210.25391,497.885123 C1208.52863,487.823975 1211.06112,477.029094 1208.71571,467.222331 C1207.08744,460.4128 1202.28404,460.816007 1195.8922,459.267207 C1172.8764,453.689794 1149.81556,448.28197 1126.7859,442.756473 C1117.43199,440.510279 1107.26048,436.298234 1097.54801,436.438404 C1089.57641,436.554348 1082.8797,441.308041 1075.99939,444.751743 C1064.70368,450.405298 1046.74765,460.296856 1033.7769,454.67445 C1018.66168,448.122764 1036.27647,433.33042 1028.69634,426.332264 C1023.49973,421.533578 1007.96705,424.411405 1000.92217,423.219088 C997.059357,422.566688 988.190469,419.612719 984.648111,421.98697 Z M1222.49428,615.2466 C1211.50184,616.979681 1205.13662,621.749175 1199.08287,631.106754 C1192.93103,640.617562 1192.19797,645.327173 1200.97058,652.770261 C1210.43151,660.796327 1220.32952,668.723761 1230.37379,675.951976 C1243.10423,685.114054 1257.22679,692.049899 1269.80924,701.435658 C1275.31922,705.546441 1300.32924,673.320652 1304.66909,668.901649 C1310.65573,662.805925 1316.79897,656.692589 1323.22269,651.081212 C1325.56985,649.031105 1332.92797,644.275701 1332.93142,640.788404 C1332.94002,631.973294 1313.39696,624.086368 1307.10917,621.659351 C1293.01931,616.2241 1278.24801,614.029569 1263.2358,613.802366 C1249.9289,613.601583 1235.67556,613.166551 1222.49428,615.2466 Z M1271.47826,576.469329 C1261.15888,581.949978 1250.37898,586.568934 1239.99406,591.936203 C1236.30992,593.839255 1213.07882,603.600463 1214.25167,609.435209 C1240.39421,607.778107 1266.42119,603.35277 1292.48095,608.414783 C1304.1836,610.689375 1315.33605,614.500711 1325.11558,621.533805 C1332.5218,626.857466 1338.16874,637.087895 1345.52322,627.982551 C1330.50898,619.47202 1316.9884,608.19151 1303.67307,597.238932 C1297.84675,592.4438 1291.84968,587.934736 1285.9354,583.270428 C1282.41684,580.496961 1276.61467,573.742958 1271.47826,576.469329 Z M653.117209,449.041949 C644.938826,450.190928 636.967796,452.357968 628.936288,454.218384 C596.399006,461.756512 563.739038,468.524636 531.288153,476.50203 C466.560905,492.412029 399.898354,507.753568 338.179465,533.242986 C343.368497,538.980991 357.119516,534.82434 363.559583,533.699477 C376.1667,531.496263 388.40058,527.646236 400.855638,524.740197 C413.037679,521.899618 425.264648,518.51125 437.54691,516.142665 C443.204216,515.052255 453.183122,513.6156 453.411212,522.099441 C453.734338,534.126684 430.374193,543.120416 421.80011,547.516509 C412.631611,552.217504 403.755136,557.412887 395.027265,562.87872 C388.127564,567.200741 375.402946,572.961139 373.165252,581.550058 C395.556018,572.061938 417.960607,562.611715 440.213136,552.80319 C448.595417,549.108198 457.088288,545.626809 465.067957,541.118746 C470.388312,538.112797 477.236175,532.838174 483.536278,532.364457 C492.067163,531.721924 493.480625,539.470211 489.886491,545.721552 C485.388639,553.547357 476.106096,557.962399 469.278969,563.438567 C460.575289,570.422016 452.872092,578.659524 445.035842,586.564568 C438.530113,593.125978 430.153016,599.585755 426.757596,608.457182 C438.452356,612.369223 451.740285,599.828643 460.333376,593.630702 C473.837299,583.889359 486.415041,573.293602 499.29863,562.76675 C505.889028,557.38188 513.746013,548.66032 522.420318,547.053128 C533.41353,545.013561 532.502901,557.585148 529.836676,564.515196 C523.878707,580.00488 509.928973,592.919265 508.931947,610.381334 C508.318525,621.132125 517.421361,617.039211 523.495102,612.727525 C533.722833,605.465013 540.644998,594.398985 549.927541,586.070179 C572.280291,566.010419 597.867762,548.89804 625.518405,537.015496 C630.467251,534.888076 632.247039,527.253481 633.752083,522.664456 C635.996689,515.81537 638.579973,509.174719 641.279029,502.480668 C647.192071,487.817836 652.040697,471.96985 660.326213,458.42499 C662.636481,454.647313 668.597906,450.797286 663.666339,448.575123 C660.98629,447.369298 655.885384,448.65264 653.117209,449.041949 Z M889.160047,424.237728 C880.784498,425.215869 872.306872,425.126478 863.915752,426.01179 C850.22006,427.455794 856.194191,444.120288 853.988278,454.161272 C847.491648,483.720378 816.169415,489.302141 792.433791,475.357188 C779.080665,467.509714 771.063252,456.263673 763.883222,443.107766 C759.78974,435.60754 756.739524,434.400765 748.270549,436.277971 C742.459049,437.56726 737.170049,437.293931 731.258202,437.721975 C723.816922,438.261757 723.168124,439.839847 723.015873,446.922343 C722.882653,453.212356 721.977796,457.570153 717.790887,462.665424 C709.811538,472.371194 696.432459,478.760912 685.034377,483.637863 C673.615534,488.525129 660.681098,492.157487 654.409385,503.7078 C651.248441,509.531949 647.860851,516.483797 646.945614,523.103868 C645.9456,530.335921 648.398921,534.822648 644.182599,541.49429 C635.417772,555.363604 631.400415,570.520489 626.969558,586.28248 C625.524901,591.41729 624.953959,593.530005 630.557843,594.941347 C638.597747,596.96811 650.01659,593.892725 658.26757,593.569543 C664.153465,593.33919 667.591229,582.957833 669.50475,578.751312 C673.224525,570.572061 677.785142,562.82773 682.352679,555.086837 C692.704034,537.550784 703.771661,520.131626 717.29261,504.809712 C727.498634,493.245647 742.564587,478.850303 755.632243,495.100505 C768.367713,510.936415 777.546041,529.48499 792.862863,543.28898 C806.333638,555.430647 820.214453,555.6249 834.185235,544.117564 C847.939752,532.789009 858.393184,517.333009 866.941745,501.91139 C876.187548,485.234863 883.159963,467.430638 892.170469,450.654406 C894.994038,445.395824 908.037471,431.170666 904.063368,425.078345 C901.379939,420.962933 892.926535,423.79937 889.160047,424.237728 Z M959.304476,420.600488 C951.931254,420.948935 944.513063,420.120289 937.139841,419.972936 C923.796091,419.709433 912.636807,420.175763 905.936394,432.966034 C900.021212,444.2533 894.98293,456.261731 889.584895,467.819435 C877.858307,492.928445 866.353106,518.619935 848.349853,539.986171 C832.399617,558.915008 811.793339,568.45137 791.043505,550.368514 C781.843841,542.350759 774.854587,532.006553 768.25276,521.839172 C762.960229,513.687932 756.920517,499.34265 748.052934,494.590938 C738.166624,489.293152 726.848218,501.445469 720.805048,508.039965 C710.643734,519.126137 702.151471,532.164308 693.994747,544.753485 C688.079565,553.884192 682.415173,563.207325 676.666032,572.445513 C674.336281,576.191755 664.842587,588.44462 668.00254,593.111387 C671.17114,597.790289 686.635361,594.591855 691.109798,594.163663 C701.793447,593.144325 712.463258,592.776808 723.152095,591.856283 C756.399912,588.995894 789.154797,581.688902 822.487364,579.738637 C844.444449,578.452329 866.079831,574.206819 887.692728,570.349628 C908.708919,566.599919 929.860017,564.041171 950.651361,559.084898 C962.87607,556.170769 975.123263,553.253173 987.323757,550.229829 C991.545675,549.184487 1011.4999,546.332766 1012.74001,540.844287 C999.000187,538.445028 991.786087,533.114304 986.913845,519.705149 C980.811869,502.912068 980.102739,484.196459 979.582133,466.501922 C979.381996,459.695188 979.349522,452.884916 979.345412,446.075529 L979.34518,437.904971 C979.343451,433.021508 981.451815,424.159504 977.05175,420.772111 C972.978577,417.637818 964.022785,420.375124 959.304476,420.600488 Z M1232.07014,529.047027 C1232.64639,551.175335 1228.69152,573.477882 1219.60525,593.694741 C1229.10998,595.218035 1240.41551,583.288725 1248.39044,579.293313 C1251.46207,577.752767 1271.79899,570.360563 1264.98857,564.70902 C1252.46022,554.315081 1244.24691,539.792894 1232.07014,529.047027 Z M1504.65094,547.041819 C1507.43872,552.544194 1503.9953,559.527978 1502.13033,564.747616 C1516.63525,568.233582 1531.0804,571.658599 1545.69429,574.618031 C1556.70832,576.847763 1552.86589,583.455692 1543.30551,583.000265 C1530.00993,582.367068 1517.63892,576.732636 1504.40837,576.001243 C1491.80534,575.303711 1490.3218,586.310155 1479.57671,588.429839 C1479.94232,582.373841 1484.83939,578.168333 1488.35664,573.62591 C1482.55784,570.649548 1476.63424,567.883123 1471.00946,564.603708 C1468.09511,562.90559 1460.0464,555.782977 1463.1453,551.999036 C1466.27409,548.179541 1474.47749,555.337708 1477.3971,556.913927 C1481.54714,559.15551 1489.83139,564.095796 1494.71265,562.678723 C1501.40087,560.736808 1500.00874,551.133893 1504.65094,547.041819 Z M1295.65847,402.862268 C1289.77421,403.27082 1283.37342,401.29065 1277.79977,403.881039 C1272.24327,406.464473 1265.61082,412.119863 1260.96382,416.041954 C1256.46439,419.838872 1254.22669,424.449415 1248.63244,426.690362 C1243.04506,428.931308 1237.32039,428.733117 1235.16677,435.567222 C1240.23592,436.958034 1250.18716,435.113469 1254.15805,438.840846 C1259.93249,444.265015 1249.85597,450.233338 1245.67573,451.94056 C1239.67993,454.38839 1234.77723,453.593889 1228.64758,453.134921 C1225.98088,452.93673 1226.0049,452.116151 1223.8204,453.437422 C1215.71731,458.336559 1221.32358,475.765177 1223.95253,482.122928 C1236.81244,513.242355 1280.75305,502.762583 1306.09363,499.575885 C1298.03002,491.450063 1284.82347,482.486277 1284.15765,469.723835 C1283.95859,465.92344 1284.90069,459.13106 1289.77936,458.814651 C1293.67989,458.562566 1298.35949,464.456133 1300.78767,466.77879 C1307.98813,473.663311 1317.30272,485.080143 1327.71558,486.067619 C1341.63428,487.388891 1352.34229,464.838607 1358.11501,455.003825 C1351.02095,453.670383 1343.24735,453.748617 1339.12373,446.785862 C1334.22104,438.510528 1334.13524,425.831535 1334.22104,416.514831 C1334.29483,408.581984 1336.82254,399.903315 1326.22092,399.513888 C1316.45501,399.155753 1305.51876,402.179032 1295.65847,402.862268 Z M361.038218,423.209361 C359.009769,427.634051 350.197996,429.368572 346.328951,430.551756 C331.61279,435.048208 317.243034,440.759349 302.895682,446.360222 C273.930404,457.670487 245.282232,470.162186 218.833126,486.782778 C213.890399,489.891263 216.311784,483.896578 217.595721,481.734991 C220.473808,476.888485 226.521239,473.4597 231.038285,470.491237 C243.260678,462.455733 256.206901,456.811103 269.721847,451.436014 C296.765528,440.682337 324.221103,429.279308 351.95587,420.568199 C355.173468,419.558291 363.762922,417.263683 361.038218,423.209361 Z M696.967609,445.121533 C691.590919,445.677435 685.293245,444.454785 680.122361,446.209826 C673.383919,448.497256 674.495273,453.12418 672.500667,458.814206 C669.118583,468.472805 665.498106,478.050791 661.968528,487.659006 C675.0338,487.049361 687.546824,476.70386 698.619205,470.748479 C704.887722,467.377794 726.679182,456.189203 720.108815,445.94615 C715.948097,439.463417 702.937707,444.50181 696.967609,445.121533 Z M845.660702,428.282453 C837.570386,428.136537 828.675246,430.586207 820.486739,430.993054 C809.508527,431.538951 798.696891,433.628123 787.732707,434.13282 C780.519105,434.465851 773.43701,435.949043 766.300559,436.920671 C773.400188,453.374828 787.259282,467.767279 804.672573,473.727512 C818.41068,478.429436 837.637016,479.227681 847.023115,466.217138 C852.423673,458.732514 861.245168,428.563985 845.660702,428.282453 Z M1266.93071,360.315466 C1258.10955,366.177548 1251.03842,374.577672 1243.66926,382.072342 C1225.21084,400.842776 1206.10959,420.939363 1198.1184,446.669505 C1197.0216,450.194371 1205.34374,453.308927 1207.59625,453.445697 C1212.35597,453.733088 1213.32454,451.331816 1215.19412,447.308343 C1219.81869,437.346613 1221.59124,426.218007 1228.98985,417.724394 C1238.00681,407.367934 1248.86388,397.271165 1259.32937,388.374166 C1266.44209,382.32857 1283.87128,373.815913 1285.91587,363.821289 C1288.33298,352.005368 1272.27261,356.766362 1266.93071,360.315466 Z M1039.37087,428.688551 C1034.38252,430.140073 1033.98514,434.757725 1032.84543,439.732815 C1028.25953,459.72208 1074.63768,437.91297 1081.09548,434.645232 C1078.94795,428.227693 1057.81087,429.397982 1052.91552,429.14578 C1049.10408,428.951639 1043.05549,427.61624 1039.37087,428.688551 Z M1313.32787,439.071202 C1306.45522,439.336399 1309.6236,411.255966 1317.43632,414.079957 C1324.13639,416.504361 1317.73302,438.899182 1313.32787,439.071202 Z M347.173606,406.784704 C336.650514,415.870772 320.128966,417.089469 307.04518,420.005881 C287.765169,424.303483 268.653693,429.780852 249.530178,434.723348 C237.45416,437.844568 244.252294,430.402049 250.298902,427.605815 C260.694733,422.797037 272.464638,420.234387 283.575881,417.588797 C295.605466,414.724857 307.898172,412.812179 319.858967,409.687574 C328.141238,407.522693 338.822546,401.986081 347.173606,406.784704 Z M674.558467,211.501019 C686.252935,213.649276 697.926778,217.390681 708.179203,223.519229 C716.666458,228.592553 716.329581,236.48611 705.57012,231.906025 C655.38222,210.536881 593.106256,223.48142 544.097428,242.40327 C538.690197,244.489657 539.092388,239.93707 540.726932,236.427677 C542.976794,231.593239 547.785895,228.786756 552.402494,226.542257 C566.272917,219.79501 582.262576,215.979705 597.344727,213.176659 C622.479927,208.505489 649.304672,206.86422 674.558467,211.501019 Z M681.892707,180.807769 C688.26894,182.538083 695.596091,186.829819 699.496083,192.273933 C704.061543,198.645189 700.431241,201.90153 694.097037,198.154555 C687.027317,193.972818 680.563523,189.803304 672.450069,187.594579 C668.166558,186.429979 668.339929,183.742842 671.416843,181.383958 C674.295867,179.175233 678.76676,179.9592 681.892707,180.807769 Z" id="Ink" fill="#000000"></path>
            </g>
            <g id="Character/chilling" transform="translate(1181.000000, 125.500000)">
                <path d="M938.843116,584.531476 C1006.05633,579.183424 1070.18095,604.239372 1123.90116,643.291668 C1193.13805,693.6249 1251.82122,765.607666 1291.54294,841.457512 C1295.76839,844.71277 1299.93088,848.050804 1304.06459,851.419429 C1326.17218,869.435814 1347.77071,888.465307 1366.91564,909.645176 C1377.60428,921.467754 1405.63901,950.216234 1393.46814,968.349585 C1390.88503,972.200471 1386.64339,974.410231 1382.39456,975.93439 C1370.48272,980.200955 1358.06541,982.362129 1346.31726,987.353885 C1331.81511,993.513502 1316.7769,1002.1402 1307.48596,1015.2926 C1304.84348,1019.03372 1304.15453,1023.44784 1300.60184,1025.09616 C1296.8351,1026.84525 1289.73332,1026.16325 1285.61581,1026.56634 C1277.3394,1027.3797 1269.06119,1028.19126 1260.78298,1029.00103 C1241.33585,1030.90848 1221.0073,1031.11902 1201.98289,1035.81746 L1114.4645,1057.4346 C1096.56437,1061.85592 1075.99117,1064.29242 1059.01563,1071.55871 C1033.68453,1082.40417 1009.51727,1098.28278 985.278065,1111.36859 C973.5587,1117.69556 961.837536,1124.02433 950.116372,1130.3513 C944.392501,1133.4428 940.474653,1133.48419 933.766823,1134.00064 L885.360358,1137.72556 C877.551645,1138.32659 873.802887,1141.47208 872.779354,1133.65514 L861.527684,1047.71561 L855.580758,1002.27157 C855.226389,999.568749 855.330721,986.180624 853.116364,984.564692 C851.727669,983.551585 843.578977,985.732554 842.071559,985.9179 L820.100672,988.609921 C804.276381,990.54796 788.453889,992.485999 772.629598,994.424038 C771.345235,994.580593 764.23087,994.499616 763.43219,995.550512 C762.496799,996.783155 764.27584,1003.84791 764.435936,1005.36847 C766.114243,1021.32625 767.794348,1037.28403 769.472655,1053.24181 C769.668727,1055.09168 771.915463,1063.6734 770.731835,1065.19216 C769.907971,1066.24665 763.946655,1066.37441 762.736044,1066.57236 C747.471188,1069.06463 732.208131,1071.55691 716.943276,1074.05099 C706.011797,1075.83607 691.725504,1075.7461 681.391237,1079.85791 C675.456903,1082.21883 669.585528,1088.25608 664.458868,1092.02959 L590.012567,1146.83093 C578.721323,1155.14092 563.503237,1153.02473 549.752995,1154.07203 L391.137727,1166.16093 C391.269042,1161.21956 391.402155,1156.27819 391.533469,1151.33502 C392.231415,1125.1616 392.927561,1098.98817 393.625506,1072.81475 L394.539311,1038.58146 C394.596874,1036.41488 393.731637,1030.07532 395.147315,1028.47378 C397.028889,1026.3486 405.438411,1025.42726 408.04851,1024.65349 C416.803407,1022.06044 425.556504,1019.46919 434.309602,1016.87794 C459.991471,1009.27334 485.669743,1001.66874 511.349813,994.065942 C536.731278,986.551317 562.109145,979.034892 587.488811,971.520267 C596.173553,968.948812 604.856497,966.377356 613.53944,963.8059 C615.545133,963.212072 622.551569,962.422101 623.945661,960.725192 C625.703116,958.587411 624.917028,949.465851 625.197645,946.755835 C626.575547,933.531463 628.539868,920.366473 630.932309,907.289658 C648.186669,812.964559 688.514596,717.15309 763.290083,654.227103 C812.718282,612.630343 874.72029,589.632999 938.843116,584.531476 Z M950.697393,773.685528 C944.043528,765.87039 932.86561,753.12108 921.110268,755.237267 C911.556692,756.95757 906.350883,768.80534 903.021253,776.681661 C889.636172,808.338098 885.484477,844.624596 881.321989,878.456603 C878.71009,899.685059 876.609059,921.007088 875.265335,942.354309 C922.945073,938.685171 970.624811,935.016033 1018.30455,931.346895 C1016.05422,916.148494 1014.24999,900.809734 1011.54096,885.685111 C1010.18284,878.103905 1006.42689,871.278481 1003.21598,864.274908 C988.854135,832.949575 973.177348,800.089286 950.697393,773.685528 Z" id="Accent" fill="#FF5678"></path>
                <path d="M1612.5673,156.556429 L1613.73303,156.576641 C1645.37441,157.418797 1673.27784,177.787102 1694.91954,199.343063 C1705.62077,210.001378 1715.37941,222.538349 1719.97182,237.126727 C1725.27476,253.978849 1723.5299,272.515284 1719.49513,289.428589 C1710.58193,326.805571 1699.68823,364.375097 1687.43821,400.801954 C1681.41034,418.721167 1672.66983,436.291282 1668.1206,454.631573 C1664.37004,469.7418 1680.16375,480.747415 1680.76816,496.27512 C1681.37796,511.939586 1670.84222,526.655727 1656.36525,532.253907 C1650.19887,534.638217 1642.73913,532.646193 1637.05483,535.089886 C1631.85622,537.32304 1630.03581,543.914532 1629.03746,548.974667 C1627.67754,555.87567 1627.92218,562.771274 1628.30893,569.733459 C1628.54638,573.992826 1627.48507,580.944214 1629.56272,584.742915 C1630.98919,587.352159 1633.58849,588.205112 1635.82803,589.990196 C1638.88424,592.426691 1640.92052,595.458813 1643.60077,598.258803 C1648.01869,602.879865 1652.26932,605.382941 1653.46914,612.12379 C1654.10773,610.592433 1654.74631,609.061076 1655.38309,607.531519 C1658.67675,613.557974 1661.11776,616.447938 1657.986,622.168482 C1667.70147,621.214758 1673.45772,638.846055 1676.00486,645.53292 C1680.66922,657.769378 1683.87293,670.484498 1688.54809,682.728154 C1694.95551,699.515495 1703.37403,716.081501 1707.46277,733.646217 C1710.89673,748.409144 1713.61476,763.571555 1716.66737,778.437053 C1718.38705,786.80643 1719.88547,795.308969 1723.03162,803.289659 C1724.25483,806.388362 1726.52495,808.473959 1727.93163,811.236159 C1729.85458,815.016865 1729.10267,817.014287 1729.19441,821.154889 C1729.3563,828.536352 1734.01167,833.328365 1735.47592,840.49929 C1737.0391,848.159672 1738.31627,855.90643 1739.89384,863.583008 C1743.07237,879.045933 1748.95993,894.487264 1750.37741,910.14993 C1752.02334,928.337266 1755.55444,946.301467 1757.32988,964.494201 C1758.88407,980.3908 1756.24339,997.45706 1759.56223,1012.83541 C1762.50511,1026.48446 1758.85708,1038.96565 1757.55833,1052.51752 C1757.22915,1055.95813 1762.52669,1076.4434 1754.01284,1072.50974 C1755.612,1077.33954 1757.85334,1079.64107 1757.97386,1084.93874 C1758.08539,1089.89451 1756.80822,1094.98883 1755.7649,1099.79344 C1753.75021,1109.07875 1752.40829,1119.19902 1748.46166,1127.89771 C1743.99876,1137.73726 1737.1974,1138.91592 1727.95142,1142.29174 C1721.6915,1144.57708 1710.42004,1152.73232 1705.48765,1144.00844 C1702.54657,1152.96445 1696.80471,1146.77424 1690.3685,1146.27399 C1690.41167,1146.27579 1686.6845,1147.65419 1685.98656,1147.74956 C1683.72363,1148.05367 1681.04877,1146.98658 1678.79664,1146.79944 C1673.1825,1146.33337 1667.67449,1147.08375 1662.18266,1148.22102 C1649.52791,1150.84466 1637.28508,1154.47241 1624.44325,1156.30069 C1599.35859,1159.87085 1574.77581,1158.18294 1549.65517,1159.74669 C1500.4932,1162.804 1450.51816,1160.23795 1401.31841,1158.91353 C1396.03705,1158.77137 1390.34556,1159.51096 1385.13435,1158.69939 C1379.51661,1157.82304 1378.29161,1155.16341 1373.91506,1152.50019 C1366.6388,1148.07707 1358.56566,1152.37962 1351.01778,1153.99555 C1328.85622,1158.74078 1305.71249,1159.09168 1283.37465,1163.68215 C1237.99021,1173.00525 1196.17465,1191.40492 1152.70237,1206.92543 C1133.85605,1213.65369 1111.73586,1224.54953 1091.4127,1225.03153 C1066.78315,1225.55544 1072.60056,1201.28766 1077.12641,1185.68798 C1062.89588,1189.46689 1040.54904,1206.73469 1026.08466,1196.71339 C1008.84649,1184.77204 1030.7796,1164.92019 1031.81213,1150.88425 C1001.0036,1157.2814 966.055968,1171.31194 934.785139,1159.90684 C928.768059,1157.71328 923.531671,1153.07422 917.072079,1152.32024 C910.357054,1151.53566 903.258878,1153.90918 896.4701,1153.86779 C881.003776,1153.76882 865.98536,1151.71021 850.524432,1153.61586 C816.053489,1157.86263 782.071827,1160.18756 747.322065,1161.1035 C712.338456,1162.02483 677.353048,1164.09783 642.353249,1164.01145 C624.588022,1163.96647 606.49361,1161.85928 588.76436,1162.804 C581.802895,1163.1747 566.820456,1168.23303 561.929442,1161.15568 C557.018641,1167.04538 552.847159,1163.10991 546.547663,1163.76313 C547.715102,1163.64256 543.2666,1166.21582 542.597436,1166.46414 C539.285794,1167.69499 536.190011,1167.3207 532.732663,1167.28471 C523.522663,1167.19113 514.918868,1171.50269 505.755637,1171.08521 C503.438747,1170.98084 501.686688,1170.30603 499.720569,1169.51066 C499.254673,1169.32172 499.3662,1167.3171 498.619686,1167.14975 C494.137007,1166.14564 495.295452,1168.89164 492.449706,1170.27724 C489.294561,1171.8104 484.626602,1169.32891 486.421833,1174.04715 C477.86121,1173.67106 469.750294,1176.55742 461.961368,1171.47929 C465.643569,1179.62014 452.780149,1172.85769 449.418139,1172.72453 C443.830979,1172.4996 438.938167,1175.29419 433.365397,1175.9384 C426.682751,1176.70858 419.967725,1173.60808 413.428985,1175.50113 C408.305923,1176.9821 406.552065,1180.54687 401.220339,1178.724 C396.690889,1177.17644 393.861333,1173.81322 391.663165,1170.13688 C388.630341,1165.06415 388.241794,1162.8004 380.927759,1162.71043 C375.504292,1162.64385 370.052044,1163.81171 364.576411,1163.80091 C358.302098,1163.78832 351.40719,1163.12251 345.679721,1166.10605 C339.509741,1169.31992 335.885102,1174.2127 329.04236,1176.73017 C298.271606,1188.0489 264.493212,1185.05276 232.387727,1184.86022 C218.842552,1184.77924 208.902227,1186.02448 205.099505,1170.56876 C201.886798,1157.50994 200.598837,1143.85369 197.533634,1130.6869 C193.77768,1114.55457 189.64937,1099.5865 181.315399,1085.16367 C173.231466,1071.17632 166.430096,1056.72651 159.391282,1042.19751 C144.752419,1011.98066 124.375294,986.271498 101.656095,961.715805 C93.0253172,952.385506 83.1335613,941.991714 82.7196892,928.556803 C82.4374148,916.95556 87.5460867,904.936839 94.2467215,895.694714 C100.229624,887.445902 110.087202,878.140795 121.238137,880.064438 C127.953163,881.223303 132.354895,886.641534 137.36643,890.706558 C142.843862,895.147672 148.810575,898.174396 155.412274,900.596495 C170.806645,906.24506 183.716835,912.426271 197.04795,922.175849 C210.537362,932.042394 223.147147,943.091196 234.812548,955.055933 C257.206159,978.026284 280.152011,1001.88918 293.019028,1031.63277 C298.089925,1043.35098 301.329614,1054.65171 304.786962,1066.80179 C308.183149,1078.73234 317.429126,1075.44469 327.826352,1073.72978 C340.497298,1071.63879 353.231202,1070.51771 365.986692,1069.1933 C370.787764,1068.69484 377.556755,1068.54728 380.447471,1064.009 C383.634995,1059.00465 379.983374,1052.52112 379.693762,1047.32963 C379.539063,1044.55663 380.458264,1042.51242 380.688514,1039.8078 C380.952942,1036.73249 380.044534,1033.92351 380.040936,1030.86079 C380.037339,1024.2747 383.118731,1018.4084 388.239995,1014.41895 C397.822352,1006.95111 411.799247,1002.4992 423.144456,998.39099 C438.634165,992.780214 455.231952,990.023412 471.18396,986.019571 C489.145259,981.510076 507.214487,977.446852 525.272923,973.351237 C543.016563,969.327602 560.733221,965.1888 578.667538,962.090097 C589.187085,960.272623 600.59885,960.936631 610.796407,957.614792 C621.634346,954.084214 619.837317,943.175771 619.804938,933.510769 C619.752772,917.549389 621.727886,901.116545 624.064563,885.336912 C629.036524,851.791021 640.880009,818.961323 651.645995,786.903602 C662.018038,756.028139 674.867067,726.394316 696.078848,701.338368 C716.727596,676.946428 742.071286,654.872217 768.361159,636.746063 C795.753714,617.85873 826.234856,604.213279 854.829028,587.352159 C848.579899,582.570943 841.125555,578.491524 837.535095,571.128055 C833.480536,562.816261 835.198417,552.877737 835.371104,543.993709 C835.565378,533.967011 835.871179,525.165758 839.450846,515.614123 C841.40977,510.383037 848.982837,500.460709 847.822593,494.772555 C845.878059,485.22092 824.990067,478.244339 817.298278,474.314277 C805.235337,468.149261 793.149011,461.887073 782.032253,454.104326 C771.363403,446.638287 761.325942,437.651688 754.862753,426.190805 C753.029747,422.939146 751.52053,419.523735 750.349493,415.978761 C749.045343,412.023506 749.957348,410.675696 746.005323,410.38598 C739.696833,409.921714 730.238595,416.255881 724.923057,419.054071 C697.517911,433.480495 667.419919,452.895076 635.084184,451.606649 C623.352227,451.140584 610.16322,447.453451 606.015122,435.213394 C600.55388,419.099058 611.956651,402.452076 621.961733,390.813045 C602.446247,393.881157 566.458891,403.470581 551.059124,386.051623 C540.796809,374.444982 548.537167,356.021915 557.142761,345.957428 C568.513153,332.662876 584.722393,324.568818 599.695839,316.109467 C581.322608,309.102295 560.983259,304.621592 544.826184,292.896185 C529.372452,281.683631 531.282807,264.457217 543.487856,251.231045 C556.536555,237.092537 579.352891,229.851433 597.298001,224.602352 C619.308462,218.163816 641.175016,218.680266 663.85644,219.112141 C704.563921,219.885917 739.531341,234.897172 772.919389,257.592204 C790.573089,269.59293 807.973153,282.543782 823.630153,297.078175 C838.315786,310.70923 853.98178,323.384761 868.451554,337.163373 C882.47162,350.513709 893.500235,367.054521 908.297395,379.526711 C920.880198,390.131042 934.675411,405.162092 950.659798,409.869529 C967.610155,414.861284 982.867815,423.117295 999.962079,428.031672 C1019.35345,433.604659 1036.01059,442.924162 1053.98089,451.815389 C1129.39676,489.129389 1210.35661,513.41336 1289.86482,540.202206 C1330.53272,553.903441 1371.47045,563.561245 1412.98921,574.025217 C1433.83942,579.279696 1453.20021,582.083284 1474.71599,581.133159 C1479.67716,580.915422 1484.41527,580.78586 1489.30809,581.47506 C1492.89495,581.978915 1495.62197,583.335722 1498.82928,581.190743 C1503.43788,578.110034 1505.17015,570.091555 1507.91696,565.526277 C1492.60534,560.777451 1477.6157,555.639938 1470.62906,539.943081 C1466.22732,530.051344 1463.94281,518.514883 1462.01267,507.901555 C1460.97654,502.190008 1460.95316,496.426277 1460.06814,490.711131 C1459.58245,487.554844 1458.08223,484.256399 1458.19735,481.031732 C1457.85378,482.825813 1446.44381,476.925321 1444.78889,475.829438 C1438.40485,471.598862 1437.24281,463.071131 1437.29497,455.873214 C1437.35613,447.743167 1439.80973,438.806954 1445.32854,432.641938 C1447.94044,429.723183 1451.04881,427.535016 1454.84614,426.435534 C1457.54078,425.65456 1461.09527,426.676665 1463.47152,425.890292 C1474.01265,422.404701 1475.19268,396.310454 1476.68751,386.811003 C1479.98296,365.879461 1483.26582,345.896245 1490.37839,325.832053 C1503.34614,289.25224 1520.03567,253.70173 1539.91452,220.396969 C1556.94719,191.858417 1573.96431,156.963473 1611.41446,156.556429 L1612.5673,156.556429 Z M1288.8197,1035.27851 C1273.66097,1037.90395 1259.13903,1043.2664 1244.49657,1047.81369 C1230.82188,1052.06046 1216.96191,1054.76507 1202.93285,1057.52547 C1175.01324,1063.02108 1146.48023,1068.05063 1118.96535,1075.21435 C1111.2178,1077.23157 1107.14166,1081.78425 1100.38166,1084.94954 C1095.37012,1087.29606 1090.66619,1084.91895 1085.45318,1084.7192 C1074.10438,1084.28553 1061.51258,1087.98886 1050.59729,1090.74926 C1024.82908,1097.26157 1001.96597,1108.5731 978.647764,1121.07768 C976.561124,1122.19516 962.452915,1128.65349 963.122079,1131.32751 C963.665325,1133.51028 981.599641,1127.64938 984.452583,1127.2157 C998.893575,1125.01494 1012.99999,1120.46046 1027.33485,1117.63168 C1039.10098,1115.30855 1051.00023,1113.73581 1062.716,1111.15715 C1075.7539,1108.28878 1103.52781,1098.31247 1104.63229,1119.85403 C1105.82491,1143.1357 1080.12506,1150.29582 1064.67672,1161.15568 C1066.3982,1164.12662 1091.18245,1154.33026 1094.25485,1153.34054 C1104.79418,1149.94133 1114.57082,1143.8141 1125.30082,1141.20485 C1143.96906,1136.66477 1141.70794,1157.2904 1131.40245,1166.46594 C1119.95111,1176.65819 1101.01305,1179.7389 1094.67218,1195.42496 C1102.99895,1198.43009 1113.88546,1192.78692 1121.53408,1189.98154 C1131.57874,1186.298 1141.66117,1182.67025 1151.76698,1179.15767 C1174.452,1171.27235 1195.99837,1160.4089 1218.80391,1152.89607 C1265.59503,1137.48533 1315.05381,1133.06581 1363.96754,1130.327 C1359.60898,1113.4137 1354.84209,1096.59937 1350.92604,1079.57449 C1349.24953,1072.2884 1347.71513,1064.96812 1346.44516,1057.59925 C1345.56193,1052.47434 1346.31384,1040.21089 1342.78454,1036.16926 C1338.48714,1031.24588 1327.29483,1038.16128 1321.204,1038.02992 C1315.23729,1037.90035 1310.88412,1034.81965 1305.37072,1033.84793 C1300.13613,1032.92659 1293.94096,1034.39137 1288.8197,1035.27851 Z M409.633458,1133.18098 C409.633458,1141.26604 408.232171,1151.0732 418.863245,1152.01792 C427.461643,1152.7827 444.282485,1153.76522 451.141417,1147.64879 C444.568499,1144.44392 437.097966,1143.88428 430.116714,1142.03621 C422.842253,1140.10897 416.125429,1136.94549 409.633458,1133.18098 Z M585.101946,985.864816 C581.867653,985.888209 576.411807,989.485368 573.461729,990.489477 C568.063446,992.324946 562.57702,993.874297 557.065411,995.333675 C540.505399,999.720805 519.183889,1000.40461 511.580243,1018.18706 C507.784716,1027.06209 505.15303,1049.88489 491.964022,1049.80211 C480.241059,1049.72653 473.220233,1032.80063 464.857481,1026.77777 C456.214112,1020.55517 442.510639,1024.79115 433.189112,1027.49397 C423.716483,1030.23817 409.01646,1033.75975 410.079567,1045.76948 C410.844069,1054.40338 412.401854,1062.2617 412.328102,1071.08095 C412.236362,1082.3079 411.28838,1093.51146 411.28838,1104.73841 C417.938647,1095.62405 423.739868,1077.29995 435.522192,1073.63441 C447.425038,1069.93108 454.158052,1090.73486 457.253835,1098.70835 C461.090735,1108.5875 465.913393,1119.79105 466.206602,1130.49795 C466.298343,1133.85938 464.258471,1143.09431 466.595149,1145.85831 C468.669198,1148.3128 476.647001,1146.53311 479.224721,1146.26499 C495.178528,1144.60407 511.04779,1142.53647 527.051964,1141.15087 C535.270809,1140.44008 537.508552,1138.6352 536.704475,1129.79076 C536.073087,1122.84477 535.877014,1116.22448 536.747647,1109.2515 C540.633116,1078.11871 559.797831,1049.64016 592.201921,1044.23452 C611.7282,1040.97566 634.531944,1043.35817 654.025845,1046.48747 C661.53955,1047.69312 669.697235,1051.33347 677.331462,1051.01676 C682.970788,1050.78283 681.153971,1050.46252 682.308819,1045.15226 C683.116493,1041.43993 684.845167,1038.27285 687.667528,1035.69959 C689.898075,1033.66618 692.72943,1034.81425 694.832261,1032.15642 C696.354069,1030.23277 696.125618,1027.61273 696.84335,1025.39577 C698.244637,1021.08242 700.777387,1015.26111 705.819503,1014.17242 C713.934016,1012.41793 722.559397,1023.28678 726.655329,1028.89216 C730.886173,1034.68828 732.165139,1051.99208 738.970106,1054.25762 C746.821991,1056.86866 756.163305,1046.57384 757.800239,1040.08852 C760.002005,1031.36465 757.228212,1021.92638 755.902475,1013.28708 C755.808936,1012.66806 755.422188,1006.92772 754.995866,1006.55343 C753.850012,1005.54392 745.217436,1005.82644 743.688432,1005.75086 C736.167532,1005.39276 728.63404,1005.37477 721.105944,1005.35497 C691.592571,1005.2812 662.681805,1002.37864 633.364505,999.283532 C637.622331,1006.22772 644.912981,1017.62922 637.429856,1024.9603 C631.884069,1030.39113 621.875389,1027.66672 614.910327,1028.78599 C605.070737,1030.36594 588.483743,1039.70703 579.106452,1032.87801 C565.892261,1023.25079 580.840522,1006.70998 585.747725,997.611816 C586.798241,995.66118 590.694503,988.797967 589.043179,986.510829 C587.61311,984.529602 587.195782,985.84862 585.101946,985.864816 Z M365.02252,1092.86005 C358.275116,1094.91865 351.477345,1096.89808 344.584235,1098.42404 C336.498503,1100.21452 323.960671,1098.47622 320.026634,1107.37465 C317.033384,1114.14069 318.519216,1125.05633 320.951231,1131.79538 C323.735817,1139.51334 330.27096,1141.49817 337.984335,1142.0866 C346.985671,1142.774 356.105729,1141.32182 365.000934,1140.09098 C368.50685,1139.60512 372.244815,1138.72877 375.806495,1138.72337 C377.920118,1138.71797 382.186938,1140.65241 384.066714,1139.07067 C386.500528,1137.02107 384.897772,1125.37844 384.707096,1122.58744 C384.234005,1115.67564 382.922659,1108.85562 382.564692,1101.93302 C382.309259,1096.96106 384.183637,1090.20402 378.357233,1089.14412 C374.728997,1088.48371 368.175866,1091.89913 365.02252,1092.86005 Z M909.889358,956.03305 C904.847243,956.905797 899.833909,957.530217 894.712645,957.452839 C891.557501,957.404253 887.779962,956.331764 884.864061,958.062862 C879.47837,961.260537 880.280647,969.683899 880.464128,974.940178 C880.688981,981.317532 881.246618,987.790258 881.926575,994.135222 C882.575952,1000.20307 885.903784,1010.19557 881.203446,1015.39427 C877.888206,1011.76472 876.253071,999.897154 869.854639,1000.33083 C862.819423,1000.80589 866.071704,1012.05264 866.695897,1016.07987 C870.144251,1038.34123 874.07469,1060.61518 877.156083,1082.94132 C878.620329,1093.55465 880.512696,1104.0906 881.493057,1114.75611 C882.14963,1121.91444 882.370886,1128.36017 890.368475,1129.84294 C897.779647,1131.21775 906.108221,1128.87122 913.600341,1128.69128 C921.313716,1128.50593 925.731637,1127.98228 930.169346,1121.0075 C919.543669,1118.68077 902.712034,1120.10416 896.725534,1108.86102 C889.746081,1095.74461 904.46769,1083.94363 911.711571,1074.97862 C917.271749,1068.09382 928.640343,1045.20444 938.962018,1058.79951 C942.678397,1063.69409 943.34936,1071.16373 945.225538,1076.85728 C948.278149,1086.1084 952.00712,1095.22636 955.665936,1104.24895 C989.140329,1086.96315 1023.48895,1071.37966 1059.99617,1061.67507 C1050.68903,1045.93863 1039.16754,1031.76773 1032.20068,1014.71047 C1024.39376,995.594599 1017.92698,975.956883 1009.94557,956.902198 C997.290819,964.29086 983.761833,946.378844 971.161042,945.657253 C951.25521,944.518183 929.404845,952.650029 909.889358,956.03305 Z M711.600936,1084.90635 C704.661057,1089.04155 694.452708,1097.08342 692.786993,1105.39702 C689.908868,1119.76946 706.305186,1110.16024 711.367089,1107.01475 C721.963985,1100.43046 732.346821,1098.32687 744.515893,1102.38469 C760.122526,1107.58698 774.504157,1116.37024 791.254845,1109.69777 C799.588815,1106.37594 818.075372,1099.27879 813.087221,1086.54388 C809.647862,1077.76602 799.583419,1085.29504 794.264284,1088.44233 C780.337757,1096.68214 768.80547,1091.46185 754.889735,1085.51457 C740.972202,1079.5655 725.300811,1076.74391 711.600936,1084.90635 Z M217.363915,1011.1493 C211.792944,1019.04901 223.118366,1017.3431 228.090327,1018.11328 C238.487554,1019.72022 249.195977,1028.01402 246.330444,1039.75022 C243.536864,1051.19311 232.590995,1058.34604 230.506153,1070.35756 C228.71452,1080.67217 230.441395,1093.7274 240.397909,1099.39036 C245.990466,1102.57004 258.213503,1103.88006 263.842036,1100.22712 C272.436837,1094.64873 261.762591,1086.34233 256.076495,1083.58013 C248.541204,1079.91819 242.455768,1077.93517 246.184739,1068.31515 C250.730378,1056.58795 259.559026,1047.58875 258.774737,1034.17003 C258.127159,1023.05285 252.26118,1010.41871 241.574343,1005.79945 C233.922128,1002.4938 222.582315,1003.74804 217.363915,1011.1493 Z M978.028608,977.068961 C987.659534,976.656881 988.042684,988.299511 987.557,994.025454 C986.893233,1001.85499 988.314307,1010.19917 988.478,1018.0539 C988.695659,1028.45669 990.872241,1062.52443 972.482821,1057.46429 C960.657325,1054.21083 950.927463,1042.87412 941.420657,1035.58982 C932.674754,1028.88496 910.441239,1020.84309 909.000377,1008.13157 C907.374237,993.773527 924.905616,991.086904 934.950272,988.805165 C949.29053,985.548107 963.213459,977.705977 978.028608,977.068961 Z M931.111932,598.656488 C915.839882,600.130261 900.652376,602.399404 886.117845,607.473935 C876.283651,610.907342 861.178891,613.369029 854.208432,621.794191 C848.182358,629.080282 850.794257,639.466876 848.835333,648.075584 C846.185659,659.721813 838.148495,658.129274 830.354173,650.857579 C821.02545,642.151698 818.327208,635.848123 805.341468,644.017758 C778.457981,660.929264 757.143667,685.897037 735.818559,709.027542 C752.308417,714.022896 784.656743,715.232146 790.134175,735.841581 C793.127425,747.10992 784.102704,755.306547 775.993587,761.455368 C765.522608,769.396469 754.592929,776.740144 744.350401,784.999753 C734.793227,792.706922 713.361989,823.393441 707.299938,796.413849 C703.545784,779.712883 710.579202,762.454079 707.594946,745.956454 C694.628993,766.870001 681.46337,787.733162 669.574915,809.287323 C659.456507,827.636612 653.57254,847.263532 648.719302,867.55086 C656.285173,868.045717 664.160442,864.203829 671.63997,866.472972 C678.842477,868.65754 682.213481,875.473967 682.718952,882.535123 C683.578792,894.507058 678.052792,906.693131 675.271804,918.190003 C673.363247,926.086118 671.172274,944.007131 661.557538,946.576787 C650.599077,949.50454 643.722157,932.64162 638.83654,925.789204 C634.18477,932.942133 634.26212,943.406105 633.582163,951.606331 C633.116266,957.244099 629.971915,967.783649 636.310985,970.900347 C642.24352,973.819102 654.752571,970.16256 661.097038,969.894438 C672.868569,969.394183 684.868552,968.440459 696.64368,968.787758 C707.769432,969.117063 724.138768,975.066141 728.484737,961.3883 C731.443809,952.075995 734.050311,918.609282 749.833229,936.766027 C756.845061,944.829493 762.327889,954.021232 769.100477,962.237654 C775.932427,970.524256 782.14378,971.067698 792.346733,970.64842 C812.543975,969.820659 832.266327,973.700336 852.028253,976.83323 C869.368956,979.581034 867.093438,964.857696 866.836206,951.75029 C866.442262,931.43237 870.469839,910.18592 872.666208,889.979568 C877.890005,841.931675 888.61102,794.461415 905.104475,749.019167 C891.307464,744.318928 866.573577,763.281839 856.372423,748.880607 C847.986286,737.041834 858.759468,720.733154 863.145011,709.666357 C868.615247,695.858954 871.381845,681.434329 880.304032,669.19787 C883.119198,665.334389 887.125188,660.157287 892.575637,661.45831 C897.252591,662.575787 899.116177,668.54286 901.747862,671.909685 C910.10162,682.594993 920.772268,690.608073 928.197831,702.2633 C932.739872,709.392836 936.27277,717.011831 937.747809,725.383008 C938.154345,727.684542 937.63988,732.397378 939.258825,734.328219 C944.279354,740.311487 960.09645,740.223313 967.12627,743.892451 C991.126235,756.422224 999.56094,792.894068 1008.88067,815.891412 C1011.50696,822.367738 1014.10986,828.860258 1015.50575,835.725271 C1016.43755,840.313943 1016.39257,846.147855 1018.88035,850.263264 C1024.31102,859.248063 1041.18402,851.224185 1049.46403,849.833188 C1063.34199,847.501063 1077.15159,845.276907 1091.08532,843.319073 C1099.58658,842.126019 1111.96072,839.043511 1118.4383,846.57793 C1125.15332,854.389469 1121.29124,866.692508 1117.92023,875.072683 C1112.41762,888.750524 1105.3878,901.818342 1099.58118,915.372019 C1094.9492,926.18329 1092.6431,940.111258 1083.7425,948.441047 C1076.03272,955.660558 1063.27363,957.729959 1054.19675,951.854659 C1049.01612,948.50223 1035.71559,916.072016 1032.20607,917.520597 C1038.54155,942.569347 1047.83069,968.111154 1057.6451,992.017235 C1060.65814,999.360909 1065.83337,1014.33438 1073.44781,1018.31662 C1079.75989,1021.61867 1094.08216,1015.37987 1100.53996,1014.17062 C1106.66317,1013.02256 1118.75129,1008.04879 1124.60648,1011.69274 C1131.70285,1016.11226 1132.56809,1027.89885 1133.36497,1035.21553 C1133.95679,1040.64096 1132.88289,1044.68979 1139.48099,1044.41987 C1144.12916,1044.23092 1148.8205,1041.96358 1153.2816,1040.82271 C1163.63745,1038.17927 1174.38545,1036.43018 1184.92838,1034.72787 C1209.31149,1030.78881 1233.68562,1026.86055 1258.05794,1022.82252 C1279.01069,1019.35132 1299.69002,1019.37112 1318.62268,1009.429 C1328.21943,1004.39045 1339.22106,1002.8519 1349.44021,999.481474 C1359.5748,996.139842 1369.67702,993.971469 1380.28471,992.715433 C1403.46981,989.973027 1426.03071,987.286404 1448.94418,982.587964 C1461.48381,980.016508 1474.00006,977.322688 1486.47313,974.441722 C1497.5755,971.877464 1508.30911,967.803443 1519.35751,965.289571 C1528.54952,963.198576 1536.0992,964.769521 1540.03684,954.332542 C1542.861,946.848508 1542.20443,938.461136 1542.92935,930.628003 C1546.24459,894.838162 1533.71576,858.84498 1531.15243,823.251282 C1530.32137,811.723818 1530.06593,800.160365 1529.2007,788.641899 C1528.80496,783.364027 1529.0442,767.996474 1522.88861,765.151498 C1522.32917,769.373076 1522.76449,776.473821 1517.97061,778.566615 C1520.31269,777.544511 1517.23849,790.013102 1517.073,791.26554 C1516.41823,796.242899 1518.05156,801.569357 1517.18992,806.453144 C1517.87348,808.171646 1517.57487,809.465472 1516.2977,810.33642 C1515.42707,811.041816 1514.79208,811.934357 1514.39634,813.012245 C1514.33518,816.494238 1515.35512,814.442831 1515.40369,815.644883 C1515.88577,827.622217 1513.86209,840.038623 1514.72733,852.307472 C1515.64293,865.276318 1518.53724,877.998636 1520.73541,890.789334 C1522.70873,902.270011 1524.83494,913.774081 1526.48087,925.306943 C1527.63572,933.401001 1528.49196,942.691711 1524.1388,950.058779 C1515.87318,964.046131 1491.94337,962.525571 1478.00605,964.812709 C1454.84074,968.616808 1431.64305,972.048415 1408.3932,975.280279 C1399.46741,976.52012 1390.4337,979.352501 1381.40358,979.494659 C1371.75647,979.645816 1366.59383,975.748144 1360.51199,968.625805 C1348.25838,954.278558 1340.35612,937.982474 1330.14957,922.375592 C1324.41671,913.608529 1319.64801,911.297998 1309.9973,908.622172 C1301.03374,906.137092 1293.84023,899.594185 1286.54778,894.15256 C1271.22896,882.722269 1251.44724,870.293266 1241.39539,853.459139 C1230.81649,835.745066 1245.72337,829.864368 1259.99707,825.030967 C1256.52354,815.79604 1249.71138,808.378586 1244.09903,800.433886 C1237.71859,791.400501 1231.93356,782.018016 1225.06383,773.324732 C1211.06175,755.605261 1197.07587,737.977563 1183.48752,719.926988 C1171.87249,704.500053 1160.13333,689.886482 1145.30919,677.389099 C1130.42029,664.835933 1113.84409,654.54831 1097.49454,644.039352 C1088.9537,638.549141 1073.96047,624.522201 1063.1657,625.956386 C1052.69473,627.349183 1048.55382,646.859136 1045.93833,655.059363 C1042.93608,664.468839 1041.87657,677.588842 1034.88273,684.997297 C1024.60423,695.884146 1013.93178,678.73511 1009.02637,670.831797 C1000.04482,656.354987 990.852813,642.00774 981.883856,627.518334 C977.796919,620.912446 971.893165,614.626865 969.466546,607.137433 C969.437665,607.047359 968.301671,600.607545 969.44845,601.508258 L969.52708,601.580223 L969.449013,601.493804 C966.884244,598.951391 957.408003,598.423439 953.865399,598.116887 L953.54152,598.087852 C946.087177,597.384256 938.54469,597.938495 931.111932,598.656488 Z M830.998153,1004.592 C822.412346,1004.53981 813.851723,1005.53852 805.305491,1006.23852 C797.798981,1006.85214 790.918464,1005.70407 783.424546,1005.2524 C774.153386,1004.69457 769.568173,1005.66628 771.703382,1015.24491 C773.25577,1022.21429 775.121155,1031.49781 782.275095,1034.44356 C791.938399,1038.424 804.95472,1037.88776 815.251212,1039.39572 C822.809887,1040.5024 830.348776,1041.50111 837.875073,1042.76255 C842.874016,1043.6011 845.440944,1044.47745 847.78122,1038.81089 C849.738345,1034.06207 848.477366,1027.7171 847.810001,1022.81172 C847.295536,1019.04721 847.603136,1012.42693 845.825893,1009.0781 C843.172622,1004.07914 836.22195,1004.62439 830.998153,1004.592 Z M1231.26457,909.07798 C1243.87796,920.612642 1252.36663,935.359374 1261.89142,949.344926 C1267.70703,957.883454 1279.08462,971.496514 1270.8226,981.848918 C1263.78379,990.673564 1247.41625,988.654548 1237.56947,989.079225 C1222.09595,989.746832 1209.45738,996.741408 1194.73217,1000.34936 C1157.64573,1009.43673 1188.44707,947.075783 1193.58452,934.061949 C1197.18937,924.931392 1200.90755,915.842223 1205.26791,907.04097 C1207.23403,903.073118 1211.15727,891.502467 1216.04649,889.987306 C1223.13387,887.790142 1226.7783,904.975168 1231.26457,909.07798 Z M912.61818,777.96199 C906.723421,789.233928 905.766444,804.835412 902.971065,817.145649 C894.42843,854.787154 889.433085,893.123258 885.506243,931.488154 C905.039718,923.737797 925.657886,923.201553 946.283249,921.304902 C961.226114,919.930099 974.947575,918.355555 989.894038,918.99437 C992.441179,919.102339 999.767805,920.396165 1001.86704,918.229592 C1004.6858,915.321633 1001.27163,907.207782 1000.43877,904.148667 C995.909319,887.534076 993.918016,870.365245 988.76977,853.853224 C983.52079,837.013698 977.140346,820.197566 970.351569,803.917678 C965.386804,792.010524 958.567446,780.398485 946.535085,774.559175 C936.001147,769.448654 919.156921,765.459209 912.61818,777.96199 Z M832.172788,851.222026 C840.220745,863.359513 850.414704,873.97644 858.275583,886.227294 C863.848352,894.916979 870.374501,910.989927 856.987622,916.514328 C852.289083,918.452367 846.741497,917.61381 841.818104,917.700185 C834.203665,917.831547 826.662977,918.486557 819.035946,918.30481 C811.822645,918.13206 804.6777,917.257513 797.482387,916.881422 C792.947542,916.64569 787.250653,916.994789 783.255456,914.389143 C772.547032,907.401766 780.290987,893.133695 783.739341,884.004937 C787.401755,874.307544 792.346733,865.137398 797.119024,855.947458 C800.427069,849.573703 805.373846,836.586862 812.898345,833.988414 C821.809739,830.911305 828.460007,845.623846 832.172788,851.222026 Z M1222.42675,713.70079 C1240.11463,734.276034 1255.47302,756.719139 1269.9356,779.640904 C1276.9942,790.826467 1283.84774,802.143391 1290.69048,813.462115 C1295.16776,820.868771 1298.52977,830.343029 1303.98382,837.051488 C1316.42631,852.352459 1319.88726,818.966722 1321.72026,811.709422 C1328.48566,784.949368 1336.8628,758.405251 1344.31534,731.812547 L1336.67676,731.81285 C1306.23114,731.796554 1277.04236,731.345513 1247.39988,722.37248 C1239.00835,719.833415 1231.35793,714.32161 1222.42675,713.70079 Z M1158.12044,718.888508 C1167.75137,726.003649 1229.39901,767.778558 1203.4671,783.898292 C1198.1012,787.234526 1189.33191,785.721164 1183.26806,786.199826 C1175.49712,786.813448 1167.60387,787.56563 1159.92647,788.942232 C1149.98794,790.727315 1140.33183,793.838615 1130.34654,795.414959 C1122.40831,796.669196 1111.88876,798.132172 1104.79598,793.187203 C1093.09641,785.028365 1100.19818,769.005802 1104.06026,758.633604 C1109.55208,743.89587 1114.7525,724.16638 1128.37502,715.388521 C1131.54456,713.346112 1135.42823,706.052823 1138.83881,705.385216 C1144.17953,704.33792 1154.21339,716.003943 1158.12044,718.888508 Z M1498.23567,372.364784 C1493.5875,375.922355 1493.37524,383.311016 1492.17002,388.525907 C1488.11546,406.06723 1482.45635,423.142488 1479.09794,440.870956 C1475.82407,458.162152 1474.79514,475.185224 1476.40149,492.708553 C1477.4736,504.39617 1477.59772,518.777607 1484.69949,528.730527 C1493.19895,540.63948 1510.02879,540.029456 1522.7573,543.556435 C1535.00372,546.950253 1547.14581,557.461011 1533.78771,568.387448 C1529.0406,572.268925 1522.80766,572.900542 1518.11452,576.63986 C1512.32589,581.255524 1509.00166,589.52593 1506.54266,596.288373 C1504.51718,601.855961 1504.57654,602.919454 1510.626,604.886284 C1513.389,605.784224 1516.18078,606.354659 1519.08769,606.113529 C1525.70737,605.562889 1531.61293,601.190154 1537.15512,597.904305 C1551.29031,589.524131 1567.61647,578.336769 1584.49308,577.071735 C1589.88776,576.668652 1596.01997,578.876613 1601.26535,577.12392 C1606.15277,575.488193 1604.65254,574.487683 1605.50159,569.940399 C1608.8636,551.916816 1610.22891,534.226136 1619.41553,517.921055 C1623.95037,509.875584 1635.93776,493.417547 1643.97313,505.943722 C1647.32794,511.174808 1648.54215,513.730068 1655.9857,512.124933 C1662.04236,510.82031 1668.69622,506.028297 1667.4946,499.030123 C1666.36314,492.427834 1657.6838,487.932735 1652.42402,485.039172 C1645.41759,481.188287 1640.50499,481.632758 1632.87616,480.720422 C1611.91441,478.213748 1626.61084,447.545224 1629.63287,436.037555 C1631.53243,428.805448 1633.75399,419.457154 1628.76763,412.926844 C1621.17838,402.993719 1604.64535,406.259774 1594.23013,407.668766 C1579.82692,409.617602 1564.10336,410.655902 1550.62294,404.116594 C1536.36183,397.199396 1530.28359,381.597912 1516.9111,374.013107 C1511.96972,371.209519 1503.31196,368.47431 1498.23567,372.364784 Z M1560.82248,499.060354 C1570.73222,498.927193 1565.91496,513.062102 1563.20233,517.814526 C1557.48565,527.837625 1545.24103,531.713703 1534.48943,528.017573 C1525.98457,525.093419 1516.78537,512.176758 1530.10569,510.035378 C1536.49333,509.009674 1542.81621,509.427154 1548.86926,506.387833 C1552.31762,504.656734 1556.77511,499.114339 1560.82248,499.060354 Z M1535.96105,423.896829 C1542.11844,427.636147 1531.60969,451.518834 1529.83964,456.352235 C1526.95792,464.241152 1524.39279,469.333678 1531.72481,475.414118 C1536.82269,479.642894 1546.87814,483.292238 1542.07707,491.719199 C1537.63396,499.516342 1522.3889,496.246689 1516.19013,492.431793 C1507.1798,486.883998 1509.83487,476.258074 1511.82258,467.537798 C1513.12133,461.824452 1524.9972,417.238756 1535.96105,423.896829 Z M566.395932,267.086256 C585.384362,275.200107 604.800913,282.529386 624.892024,287.418571 C642.450386,291.692334 659.715538,296.3008 677.811749,295.296691 C694.553442,294.369959 696.550141,310.822597 686.987571,322.216899 C681.792555,328.407107 675.764682,328.252352 668.193415,328.491683 C659.330589,328.772402 651.280833,331.23229 642.732802,333.434852 C629.714682,336.789081 616.534669,339.637657 603.919487,344.372086 C597.409528,346.815779 590.985913,349.689547 585.179296,353.55123 C581.529473,355.980527 573.38438,360.35686 577.692573,363.750678 C583.920116,368.654258 602.404874,361.936803 609.816046,361.494131 C627.072204,360.464829 644.294184,358.90648 661.453206,356.745305 C669.857331,355.685412 678.880253,354.638115 686.840067,351.584399 C692.047675,349.586977 697.812919,344.627612 703.709477,345.887248 C716.150173,348.545079 709.985589,367.202079 704.337268,373.271722 C695.949333,382.285313 683.215429,386.265761 672.381087,391.387079 C664.80802,394.968042 657.281723,398.759545 649.928114,402.766985 C646.454577,404.660037 630.265124,411.751784 630.77779,417.135826 C631.315639,422.795188 644.094514,419.941214 647.255055,419.426563 C668.348114,415.994956 687.381514,407.836118 706.870018,399.486534 C715.400061,395.831792 724.050626,392.324607 732.402585,388.27218 C738.236184,385.4398 743.970848,381.124649 750.41605,379.838021 C765.61255,376.8023 764.946983,393.780386 770.929886,402.952331 C788.7131,430.210842 823.072516,441.839076 849.8067,457.591717 C859.919712,463.549792 869.566827,470.411206 878.846981,477.589329 C885.475663,482.714245 888.125337,489.768204 895.527514,483.00936 C901.695696,477.375191 904.670958,469.111982 908.624782,461.946456 C913.227983,453.604071 919.376378,446.238803 924.094704,437.964797 C931.066962,425.740935 933.155401,414.08211 917.843776,409.583412 C901.769448,404.861579 889.048136,397.820217 875.386036,387.773724 C841.857679,363.117261 814.037003,331.631774 780.605782,306.786365 C749.633559,283.767428 716.790555,262.16648 677.96285,255.985269 C641.162425,250.124365 600.787727,251.567547 566.395932,267.086256 Z M1570.88512,444.142229 C1570.09903,450.929865 1568.42792,465.406675 1559.00206,465.948318 C1547.55432,466.605128 1555.24251,431.815797 1561.72729,427.90013 C1572.11012,421.630745 1571.55069,438.391094 1570.88512,444.142229 Z M1464.36374,441.371211 C1450.07385,442.555269 1446.0013,458.212537 1460.28399,463.756732 L1464.36374,441.371211 Z M1517.34858,427.629489 C1515.51377,434.735632 1516.16675,446.138932 1510.46626,451.593153 C1502.4309,459.278728 1498.93218,447.999593 1498.99154,441.568254 C1499.0491,435.207096 1502.20065,419.296101 1510.7109,418.457543 C1517.98177,417.741351 1511.93051,426.17371 1517.34858,427.629489 Z M1671.56535,269.529948 C1666.34156,280.404201 1671.9575,291.136295 1675.08386,301.825201 C1668.67104,303.892803 1660.02947,302.329055 1656.11342,309.109493 C1653.64543,313.383256 1654.07535,319.818193 1654.81466,324.446454 C1655.42087,328.243355 1658.53284,333.355675 1655.94253,336.879055 C1652.55174,341.49112 1644.13502,339.358737 1640.39526,344.489053 C1634.71096,352.291594 1637.90028,370.113636 1645.87629,375.987136 C1657.08658,384.237748 1650.39674,363.990008 1649.71139,360.302876 C1647.99171,351.066149 1657.55788,352.322185 1664.09122,348.591865 C1667.59714,346.590844 1668.22313,346.203956 1669.02721,341.931993 C1669.77012,337.996532 1669.37618,334.874435 1668.43899,330.633063 C1665.25866,316.242628 1670.81884,318.592748 1682.24679,315.422066 C1692.10437,312.685058 1691.31469,304.805139 1688.81072,296.522136 C1686.8464,290.029615 1680.99121,279.378498 1687.33388,273.8433 C1689.85044,271.646136 1693.67295,273.035334 1694.2162,268.450261 C1694.58316,265.355157 1690.43146,260.280626 1688.25128,258.500941 C1680.73758,252.364717 1674.61976,263.170589 1671.56535,269.529948 Z" id="Ink" fill="#000000"></path>
            </g>
        </g>
    </g>
</svg>